<svg version="1.1" id="Layer_1" xmlns="http://www.w3.org/2000/svg" xmlns:xlink="http://www.w3.org/1999/xlink" x="0px" y="0px"
	 width="100%" viewBox="0 0 624 208" enable-background="new 0 0 624 208" xml:space="preserve">
<path fill="#000000" opacity="1.000000" stroke="none" 
	d="
M254.055298,73.080711 
	C248.364441,76.899551 242.911942,80.432106 237.596176,84.159653 
	C231.049103,88.750595 223.205780,87.587135 216.012070,89.286179 
	C206.015228,91.647285 195.844147,91.329430 185.712540,91.126610 
	C152.408325,90.459908 119.136169,92.542603 85.837669,92.154694 
	C83.672173,92.129463 81.505295,92.137360 79.341797,92.056427 
	C77.860649,92.001030 76.129471,92.098953 75.681152,90.209618 
	C75.258652,88.429047 76.625969,87.421082 77.915878,86.678741 
	C92.188080,78.465073 106.754219,70.807671 121.499786,63.474312 
	C131.625198,58.438690 141.880997,53.716824 152.389694,49.555767 
	C167.975174,43.384499 183.444824,36.948524 199.765350,32.759193 
	C215.572266,28.701698 231.556381,26.265713 247.759033,24.364388 
	C260.879944,22.824688 274.046753,21.326771 287.104523,19.350101 
	C296.434448,17.937748 305.797882,16.292377 315.141418,15.937684 
	C330.664032,15.348423 345.806946,18.744089 360.722778,22.998907 
	C401.075165,34.509613 438.799866,52.271679 476.144714,71.031761 
	C519.444702,92.783401 561.258972,117.130409 602.497559,142.507111 
	C604.233276,143.575195 607.091187,144.161331 606.818481,146.787643 
	C606.519470,149.666397 603.609985,148.997498 601.618286,149.532120 
	C588.658447,153.010742 575.575806,156.113113 562.807495,160.195999 
	C553.642273,163.126755 544.708252,161.910034 535.702881,160.681000 
	C532.746460,160.277512 529.733337,159.830444 526.815552,159.740448 
	C509.595551,159.209335 492.496094,156.337891 475.199463,157.245041 
	C468.367798,157.603363 461.772186,159.150314 455.121857,160.443848 
	C452.021301,161.046936 450.656219,162.882751 451.802185,166.296707 
	C453.487946,171.318817 454.434082,176.628357 456.499939,181.472275 
	C458.416199,185.965332 456.798889,187.452469 452.771881,188.452026 
	C441.180786,191.329117 429.623199,194.341980 418.061951,197.338165 
	C410.188141,199.378754 402.343628,201.533661 394.460602,203.537384 
	C389.131989,204.891830 387.503052,203.669128 386.784790,198.308487 
	C382.823730,168.746429 375.811920,139.955048 364.596527,112.276207 
	C361.977783,105.813385 358.496765,99.704704 355.731689,93.295357 
	C351.355347,83.151070 342.598236,77.646561 333.832733,72.177338 
	C321.772888,64.652580 308.916748,58.986698 295.043335,55.559628 
	C286.849426,53.535534 278.531708,53.181019 272.425507,59.035751 
	C268.295471,62.995644 263.766541,66.140709 259.346039,69.561066 
	C257.769623,70.780792 256.023132,71.780670 254.055298,73.080711 
M423.628143,157.111755 
	C410.949036,159.431320 398.476807,162.627441 385.592224,165.843018 
	C386.615051,177.322235 390.047791,188.187851 390.708557,199.848999 
	C405.243927,197.496353 418.419586,193.611038 431.654449,189.974075 
	C433.617188,189.434708 435.158295,188.749985 434.196198,186.214752 
	C430.898895,177.526138 428.818634,168.493103 426.756073,159.460434 
	C426.433472,158.047699 426.175934,156.824203 423.628143,157.111755 
M422.923859,141.044922 
	C422.923859,134.986404 422.923859,128.927887 422.923859,122.082802 
	C406.739716,125.974594 391.431396,128.202728 376.360229,132.654037 
	C378.821777,141.612259 381.214935,150.020096 383.412445,158.478790 
	C384.206177,161.534073 386.277405,161.342148 388.436005,160.865784 
	C399.600494,158.401962 410.751831,155.877197 421.892303,153.306747 
	C423.707397,152.887939 425.526489,152.225586 424.897614,149.643906 
	C424.272339,147.076889 423.702057,144.496490 422.923859,141.044922 
M426.536011,109.470840 
	C424.561279,107.445526 422.561157,105.444252 420.617798,103.389267 
	C417.674042,100.276459 414.522247,99.036926 409.996765,100.261208 
	C403.498444,102.019173 396.716614,102.699524 390.144928,104.223953 
	C382.816833,105.923843 375.194519,106.484558 367.936279,109.428627 
	C368.751495,114.711151 371.852875,118.919762 372.931824,123.689705 
	C373.801605,127.534798 375.750305,128.174469 378.917114,127.684380 
	C381.213135,127.329063 383.496185,126.873291 385.769135,126.388039 
	C395.972900,124.209656 406.129181,121.778580 416.384399,119.880913 
	C424.578400,118.364655 424.714203,118.569641 426.536011,109.470840 
M588.229309,149.693695 
	C592.160583,148.545670 596.091858,147.397629 600.003906,146.255234 
	C599.700623,144.068497 598.072144,143.703934 596.866638,142.965195 
	C588.511780,137.845276 579.967957,133.011322 571.825134,127.575775 
	C566.666748,124.132385 561.832886,123.039970 556.128723,125.900887 
	C554.266541,126.834824 551.893066,126.692551 549.812256,127.258835 
	C545.152161,128.527100 540.087769,128.559265 535.534546,131.460876 
	C536.277893,132.288635 536.619019,132.900330 537.139709,133.214127 
	C547.394592,139.394608 557.338501,146.047882 567.151062,152.900925 
	C568.992432,154.186951 570.990173,153.894516 572.926514,153.447052 
	C577.775574,152.326477 582.593445,151.071213 588.229309,149.693695 
M494.872314,107.321907 
	C493.227081,108.410950 490.888336,107.478958 489.197601,109.267090 
	C489.806793,109.747337 490.240997,110.296516 490.800995,110.500526 
	C501.607758,114.437851 511.922882,119.519066 521.938660,125.053452 
	C527.322205,128.028244 532.185852,128.121872 537.656128,126.474892 
	C540.351013,125.663528 543.166931,125.255241 545.926636,124.657944 
	C550.352844,123.699944 554.823364,122.884262 559.807495,120.687698 
	C548.312866,114.103241 537.542175,107.905769 526.735352,101.771950 
	C525.060791,100.821503 523.107422,101.037682 521.347168,101.474121 
	C512.820007,103.588295 504.288971,105.666267 494.872314,107.321907 
M465.323730,102.280334 
	C474.505219,104.712952 483.346252,107.395851 493.257721,103.967667 
	C501.642426,101.067574 510.838593,100.588982 519.944885,97.916908 
	C513.320435,94.343178 506.924347,91.447479 501.147095,87.618187 
	C495.493835,83.871056 489.937897,84.658890 484.086914,86.090340 
	C482.488831,86.481323 480.914368,86.985023 479.302338,87.300201 
	C470.592407,89.003098 461.874084,90.662979 451.875702,92.584229 
	C456.973145,96.111771 459.119171,101.139198 465.323730,102.280334 
M380.006897,102.419823 
	C390.295685,100.096176 400.978821,99.425369 412.113495,95.659790 
	C403.163574,89.046417 397.877167,79.007515 384.969238,83.051170 
	C376.271149,85.776031 366.920074,86.439728 357.743744,88.887337 
	C358.754120,91.254570 359.639038,93.364311 360.552399,95.461655 
	C364.774811,105.157402 364.776581,105.150452 375.205292,103.172699 
	C376.510193,102.925240 377.833710,102.776161 380.006897,102.419823 
M483.480591,123.062332 
	C480.929565,122.333199 478.333344,121.731285 475.838043,120.845215 
	C472.062836,119.504654 471.088074,121.175201 471.150085,124.629486 
	C471.254486,130.445755 471.146667,136.265533 471.164764,142.083725 
	C471.201019,153.738449 471.211273,153.738434 482.756256,153.717987 
	C495.747498,153.694977 495.747467,153.694962 495.755829,140.547516 
	C495.763733,128.035004 495.763763,128.035004 483.480591,123.062332 
M131.762543,83.708015 
	C135.059494,84.629013 138.200317,88.245979 141.519669,86.453613 
	C147.663895,83.135880 153.270813,78.823090 159.886948,74.399628 
	C153.534424,71.273621 148.138229,69.066605 143.214188,66.080902 
	C137.150330,62.404079 131.565567,61.169403 125.313629,65.685066 
	C122.678352,67.588478 119.237801,68.353676 116.221550,69.761108 
	C114.190971,70.708611 112.100586,71.692009 110.911674,74.025513 
	C117.402626,78.227821 124.516205,80.210899 131.762543,83.708015 
M465.875336,154.484268 
	C467.124390,153.998306 467.640839,153.019852 467.644409,151.747437 
	C467.671387,142.081421 467.711243,132.415253 467.666168,122.749496 
	C467.661835,121.823692 467.380035,120.393318 466.760895,120.058159 
	C462.670685,117.843864 458.438873,118.494766 454.222809,119.861740 
	C450.927795,120.930069 450.208282,123.376511 450.237610,126.511101 
	C450.321899,135.510071 450.241028,144.510483 450.281494,153.510071 
	C450.287109,154.753799 449.843903,156.237686 451.706329,157.273895 
	C455.830872,155.672363 460.427032,155.074631 465.875336,154.484268 
M481.921570,77.566620 
	C472.450043,72.346184 463.112000,66.490288 451.563171,71.319801 
	C451.128540,71.501549 450.550995,71.311691 450.080139,71.441002 
	C444.454224,72.986046 438.463928,73.018440 432.135651,75.423935 
	C434.538239,77.527550 436.549133,78.978546 438.182373,80.773201 
	C444.398285,87.603401 451.218994,90.038162 460.657837,87.000198 
	C469.058685,84.296349 478.193390,83.968674 486.954926,81.343163 
	C485.795044,79.453094 484.037689,78.854416 481.921570,77.566620 
M442.800598,100.984459 
	C446.725555,100.984459 450.650513,100.984459 454.575470,100.984459 
	C454.759216,100.507515 454.942963,100.030563 455.126678,99.553619 
	C449.368439,94.685928 443.621948,89.804169 437.829620,84.977417 
	C437.367767,84.592560 436.540344,84.334732 435.964752,84.445129 
	C427.907990,85.990295 419.989594,88.195847 411.906250,88.861099 
	C411.676849,91.509727 413.261810,92.373360 414.444794,93.468925 
	C417.857727,96.629700 421.481537,99.587860 424.668365,102.960266 
	C427.501587,105.958481 429.780762,107.907463 433.631989,104.137321 
	C435.725006,102.088371 439.012787,101.663101 442.800598,100.984459 
M371.789520,66.444130 
	C363.405548,67.864281 354.833038,68.340370 346.413788,71.172112 
	C348.287720,76.099655 351.971191,79.429344 354.249786,83.621223 
	C354.683258,84.418579 355.581451,84.605270 356.441925,84.452843 
	C367.599060,82.476402 378.752960,80.481560 391.023132,78.292343 
	C384.684082,73.086327 379.989197,67.664642 371.789520,66.444130 
M517.951111,155.508499 
	C520.229431,154.731689 524.009094,157.470032 524.534180,152.579712 
	C525.418396,144.343475 524.663879,142.913940 517.220276,139.012054 
	C513.837402,137.238785 510.532959,135.316223 507.152496,133.538254 
	C504.875824,132.340836 502.731201,130.641541 499.369537,130.998245 
	C499.369537,137.820740 499.348114,144.448898 499.379486,151.076797 
	C499.393127,153.956528 501.320679,154.633728 503.740326,154.687378 
	C508.223663,154.786774 512.734558,154.439987 517.951111,155.508499 
M421.739807,83.121849 
	C425.096954,82.460739 428.454102,81.799629 432.199158,81.062126 
	C430.229095,77.213394 426.536224,76.205322 424.251984,73.726402 
	C419.493744,68.562714 414.039490,66.925331 407.364258,69.474922 
	C405.847229,70.054367 404.039642,69.854240 402.497833,70.391708 
	C398.840851,71.666550 394.502838,70.277481 390.786865,73.367050 
	C395.524414,77.247139 399.968750,80.934433 404.470856,84.549828 
	C406.151733,85.899651 408.201447,85.925606 410.199768,85.541061 
	C413.782410,84.851669 417.341492,84.040016 421.739807,83.121849 
M431.915924,56.591946 
	C425.834808,58.123425 419.155212,57.119171 413.054077,60.829105 
	C417.115479,63.940086 420.948212,66.575111 424.407745,69.632462 
	C426.689484,71.648888 429.057526,71.996208 431.762878,71.466286 
	C439.401581,69.969994 446.982910,68.157890 454.770172,67.507561 
	C455.727142,67.427635 456.744202,67.071236 456.890839,65.572075 
	C452.667542,63.454868 448.391388,61.297794 444.102936,59.165417 
	C440.528290,57.387970 436.950928,55.592693 431.915924,56.591946 
M143.467133,62.142517 
	C149.038437,66.163467 155.755402,67.919495 161.641403,71.324074 
	C162.688675,71.929832 164.019196,72.052536 165.018829,71.458633 
	C169.080597,69.045448 173.054428,66.484245 177.525848,63.686577 
	C170.857132,59.878368 164.836243,56.422310 158.794800,53.002499 
	C157.268082,52.138271 155.619080,52.004578 153.992599,52.718719 
	C149.332108,54.764984 144.687820,56.848103 140.162109,58.861153 
	C140.233063,61.032898 141.907364,61.039093 143.467133,62.142517 
M433.103271,160.348572 
	C430.248871,161.653091 432.000885,163.929779 432.354950,165.504044 
	C433.624634,171.149338 435.697845,176.631699 436.717346,182.310303 
	C437.660278,187.562332 439.656952,188.428818 444.689636,186.876495 
	C454.302795,183.911362 452.775391,185.434677 450.714294,175.767441 
	C448.606049,165.879105 444.442017,160.062637 433.103271,160.348572 
M403.046387,66.452042 
	C405.672119,66.003319 408.586761,66.527229 411.344116,63.970310 
	C404.742004,60.639721 400.574738,53.490913 392.480713,54.461575 
	C385.434082,55.306633 378.481720,56.937534 369.971771,58.499405 
	C377.596710,62.468670 381.560089,69.952576 390.137177,68.685341 
	C394.214172,68.082993 398.378815,67.925438 403.046387,66.452042 
M86.616707,88.545967 
	C100.301674,88.185333 114.048370,89.179222 127.722153,87.205414 
	C120.804886,83.023064 113.854095,79.601349 106.905411,76.175346 
	C105.917664,75.688354 105.001434,75.850258 104.067589,76.360954 
	C97.962952,79.699448 91.834213,82.994316 85.751297,86.371765 
	C84.461220,87.088058 83.916672,88.017174 86.616707,88.545967 
M338.926270,62.611370 
	C341.207184,66.445404 344.138458,68.450226 348.710571,66.274353 
	C349.415894,65.938667 350.357819,66.133392 351.175507,65.995201 
	C357.237885,64.970627 363.296478,63.923870 369.752167,62.816158 
	C367.126373,59.950409 364.144897,58.759590 361.590759,56.962807 
	C354.843567,52.216274 341.250549,52.321064 334.209442,57.278236 
	C335.651215,58.880047 337.080109,60.467579 338.926270,62.611370 
M192.984177,56.089283 
	C194.815399,55.186871 195.141037,54.125484 193.286514,52.891617 
	C189.012314,50.047855 184.735199,47.208344 180.442184,44.393150 
	C179.232758,43.600067 177.922867,43.713371 176.619461,44.191830 
	C171.717239,45.991367 166.814987,47.790848 161.322067,49.807178 
	C164.870285,52.896065 168.736420,53.882362 171.665405,56.182884 
	C178.651535,61.670013 185.454346,61.486282 192.984177,56.089283 
M172.562225,70.995033 
	C171.269333,71.825775 169.276764,71.892212 169.124680,74.076180 
	C169.536087,74.429962 169.853195,74.888748 170.280182,75.042610 
	C180.863968,78.856636 191.418594,82.758904 202.073761,86.363663 
	C206.058838,87.711861 207.990387,84.964912 209.540100,81.501648 
	C200.126938,77.641426 190.905594,74.068977 181.883347,70.049644 
	C178.604355,68.588882 175.947098,68.565750 172.562225,70.995033 
M442.323883,157.792389 
	C444.853607,158.079880 445.606598,157.018524 444.993011,154.575684 
	C443.981873,150.550049 443.233948,146.475739 443.152161,142.295334 
	C443.137756,141.559448 442.741669,140.396255 442.210114,140.173157 
	C437.418274,138.161850 433.136169,134.829880 428.027832,134.028687 
	C426.882538,135.445801 427.187225,136.654007 427.115906,137.790115 
	C426.989014,139.810776 427.610321,141.711609 427.982422,143.668533 
	C430.233887,155.509354 430.190125,155.517685 442.323883,157.792389 
M545.866821,142.671341 
	C541.886414,140.303574 537.906006,137.935791 533.934326,135.573242 
	C531.800781,137.109207 530.550232,138.996429 529.365723,141.430573 
	C534.437683,146.588562 541.604980,148.845261 546.744385,153.733643 
	C552.171814,158.895981 557.605347,158.996536 563.990295,154.775070 
	C558.021667,150.789246 552.246216,146.932358 545.866821,142.671341 
M445.106506,117.211945 
	C446.259949,118.043808 447.325714,119.998383 448.869690,118.858795 
	C453.421478,115.499176 458.815063,114.897102 465.139679,114.104416 
	C461.111725,110.303978 460.271484,104.501312 454.655457,104.295311 
	C447.861237,104.046082 440.728088,103.091637 434.390381,108.297157 
	C437.465790,111.989151 441.371124,113.983429 445.106506,117.211945 
M221.547211,61.079048 
	C218.121567,59.043404 214.646622,57.084869 211.290955,54.939751 
	C209.600891,53.859371 207.995697,53.476830 206.154907,54.320271 
	C202.807159,55.854218 199.458923,57.387119 195.627060,59.142048 
	C202.162903,62.886887 208.456772,65.522797 214.375488,68.776718 
	C220.525543,72.157806 224.823822,70.868904 229.057297,65.974480 
	C227.479919,63.394089 224.578079,62.778366 221.547211,61.079048 
M443.479309,130.050858 
	C444.061401,128.339233 444.584229,126.604317 445.244415,124.923355 
	C445.769165,123.587341 446.015442,122.280151 444.803772,121.288269 
	C440.522949,117.783829 436.335754,114.120216 430.964020,111.447601 
	C428.613617,116.526543 426.728241,121.018883 426.951385,126.159897 
	C427.003754,127.366249 426.880859,128.668427 428.117950,129.177063 
	C432.789032,131.097580 436.958557,134.238449 441.892181,135.207657 
	C443.371643,133.834137 442.949371,132.204208 443.479309,130.050858 
M376.593231,42.917336 
	C368.458130,43.338825 360.496735,44.831413 351.456360,46.278267 
	C359.228760,51.918175 365.810303,56.913326 375.061615,53.539833 
	C377.518890,52.643799 380.291534,52.630310 382.907043,52.145138 
	C385.197784,51.720211 387.679840,51.807171 389.955048,50.137020 
	C385.753876,47.043221 381.642639,44.902390 376.593231,42.917336 
M204.002899,51.332771 
	C206.986816,49.869560 210.743149,49.913277 213.232941,46.853340 
	C209.362259,43.532005 205.730988,40.414402 202.097305,37.299633 
	C201.422470,36.721169 200.656418,36.517788 199.788391,36.779064 
	C194.506470,38.368908 189.224472,39.958427 182.814835,41.887428 
	C188.272171,45.394260 192.679062,48.032669 196.859207,50.991444 
	C199.044052,52.537926 201.022125,52.788063 204.002899,51.332771 
M418.039825,47.550037 
	C409.825500,42.350727 401.717987,45.309864 392.939209,47.272861 
	C403.276276,56.539921 416.760376,58.291267 428.188385,52.312603 
	C425.389923,50.019001 421.913666,49.253296 418.039825,47.550037 
M503.376129,119.380959 
	C501.833771,119.279419 500.587372,117.323753 498.538177,118.765480 
	C499.155151,121.331963 498.222412,125.011803 500.860504,126.303223 
	C509.194244,130.382767 517.195068,135.092880 525.450867,139.414001 
	C527.222168,137.492874 529.061829,136.059052 529.390869,133.375015 
	C521.503174,127.708885 512.633789,123.921562 503.376129,119.380959 
M187.035309,68.606651 
	C194.119949,71.393890 201.306763,73.952286 208.251328,77.053223 
	C212.493820,78.947609 215.402344,78.099815 218.082809,74.143257 
	C210.855667,70.703972 203.703384,67.386765 196.630447,63.908207 
	C190.499603,60.892975 188.377457,61.169060 183.263855,66.144051 
	C183.803864,67.592850 185.329498,67.640549 187.035309,68.606651 
M185.684479,84.668274 
	C179.495316,82.279015 173.308487,79.883629 167.115128,77.505295 
	C165.751617,76.981697 164.363205,75.882614 162.877533,76.827087 
	C158.497833,79.611336 153.728821,81.901611 149.750031,86.478104 
	C163.345459,86.478104 176.199753,86.478104 189.054031,86.478104 
	C189.070160,86.283211 189.086304,86.088318 189.102448,85.893425 
	C188.176773,85.574982 187.251099,85.256546 185.684479,84.668274 
M468.828583,113.781273 
	C471.477478,117.549141 476.073669,116.586281 479.646301,118.146324 
	C484.557312,120.290802 489.747070,121.797035 494.992706,123.638268 
	C494.854553,115.827522 494.735443,116.097427 488.547546,113.366783 
	C481.979706,110.468468 474.889374,109.300934 468.269562,106.640747 
	C467.117279,106.177711 465.660126,105.843140 464.736755,107.380547 
	C465.058685,109.902405 467.238220,111.235252 468.828583,113.781273 
M217.570007,49.769867 
	C216.437164,50.515797 214.444305,50.069656 214.163055,52.785355 
	C218.597565,55.159615 223.220139,57.647678 227.854843,60.112976 
	C235.014603,63.921406 235.258392,63.883934 241.968277,57.991795 
	C234.242142,54.215225 229.290924,43.842041 217.570007,49.769867 
M208.176315,37.664970 
	C217.785049,46.875908 220.756805,47.344234 232.228149,41.167400 
	C229.405136,38.496914 226.672226,35.927593 223.960037,33.336586 
	C223.115921,32.530167 222.369125,31.754402 220.995834,31.827465 
	C216.298447,32.077381 211.884613,33.507862 207.501862,35.006180 
	C205.243179,35.778332 206.866043,36.569450 208.176315,37.664970 
M342.782806,42.031796 
	C351.790741,44.409855 360.013702,40.252476 369.691925,39.678238 
	C358.878479,32.452393 349.654480,31.982498 334.166779,37.268696 
	C336.884003,38.804588 339.467194,40.264698 342.782806,42.031796 
M327.710846,43.316883 
	C325.513458,43.764610 323.316040,44.212341 320.892120,44.706226 
	C328.072418,52.787521 338.872223,54.427635 348.784973,48.841774 
	C341.854065,46.418385 336.711975,39.740902 327.710846,43.316883 
M249.388885,47.102421 
	C244.137527,39.935574 238.063232,45.885532 231.808548,45.341965 
	C240.376572,56.227051 247.814285,58.528343 255.349869,53.063637 
	C254.571274,50.223995 251.696716,49.437901 249.388885,47.102421 
M241.802078,40.099140 
	C244.472305,39.429668 247.142532,38.760193 249.857788,38.079430 
	C244.798370,27.918200 236.798706,25.642385 227.686310,31.573746 
	C231.866547,37.343414 236.605026,40.414875 241.802078,40.099140 
M248.473221,29.838701 
	C254.208069,38.151054 259.740082,40.059822 267.971191,36.566296 
	C262.765320,27.189425 257.547546,25.257118 248.473221,29.838701 
M380.932739,35.293316 
	C378.763489,35.781891 376.594238,36.270470 374.349060,36.776150 
	C382.595398,44.276840 391.664581,44.692226 402.609100,41.008888 
	C394.789368,39.195370 389.160828,34.269733 380.932739,35.293316 
M266.886597,51.626808 
	C268.259796,51.246006 269.946594,51.310970 270.225525,49.375275 
	C264.221100,40.742462 259.221802,39.178169 250.400650,43.601944 
	C255.511658,47.055542 258.203217,54.113945 266.886597,51.626808 
M329.085938,32.938568 
	C335.295135,33.105579 341.178436,31.371035 348.484039,30.097038 
	C337.397827,25.305624 327.805695,27.468613 316.782349,29.925228 
	C321.310211,32.186333 324.362244,34.173904 329.085938,32.938568 
M235.845840,80.644173 
	C236.982498,79.544441 238.674576,78.848221 238.653244,76.109444 
	C230.099380,80.122055 219.159821,75.999908 212.670715,85.443520 
	C220.322052,84.446045 228.173141,84.715324 235.845840,80.644173 
M282.200989,44.069263 
	C278.132904,40.985733 273.681641,40.869114 268.589783,41.705929 
	C274.559326,50.841446 278.042694,52.383881 285.937073,49.652359 
	C284.838867,47.931458 283.773926,46.262623 282.200989,44.069263 
M543.889954,155.810760 
	C539.307800,152.029037 534.191956,149.104233 528.479858,145.979019 
	C528.708374,149.625061 526.152649,154.052505 530.283752,155.397018 
	C534.471191,156.759857 539.058533,158.327759 543.796143,157.445770 
	C544.870056,157.245865 544.823914,156.872772 543.889954,155.810760 
M287.151276,45.035740 
	C291.692505,51.712132 294.144928,52.997742 301.907318,52.651176 
	C300.968933,51.012394 300.192902,49.374420 299.163300,47.915363 
	C296.691650,44.412746 289.560425,42.498196 287.151276,45.035740 
M309.305664,37.637508 
	C314.511139,42.463947 320.161743,40.495945 326.942139,39.091297 
	C320.528320,34.667728 314.637085,33.454029 308.305969,35.380672 
	C306.504913,35.928764 308.216034,36.737179 309.305664,37.637508 
M247.784485,68.137566 
	C239.644775,70.221031 230.497986,68.725555 222.582382,75.324844 
	C230.229645,74.285698 236.940018,73.571907 243.558105,72.355919 
	C245.588089,71.982933 248.035126,70.955986 247.784485,68.137566 
M374.162354,30.972231 
	C364.530518,26.670454 361.182983,26.338295 357.302185,29.299288 
	C365.130127,33.367428 370.320984,34.038029 376.213135,31.692623 
	C375.683319,31.502268 375.225281,31.337700 374.162354,30.972231 
M270.471191,28.523590 
	C269.545380,28.539314 268.444855,28.051340 267.966034,29.365881 
	C271.976471,37.389236 273.075378,38.177872 279.183350,37.127953 
	C277.558380,33.188114 275.747833,29.668392 270.471191,28.523590 
M305.470764,24.470114 
	C304.329102,24.709246 303.187469,24.948380 301.066711,25.392597 
	C310.186981,29.010082 317.587128,24.757915 325.282593,24.217960 
	C318.830902,21.463083 312.580048,24.465464 305.470764,24.470114 
M305.462036,51.536755 
	C308.022003,56.309563 312.562225,57.504642 317.737610,58.932510 
	C315.697632,53.080723 311.553040,50.867874 306.908356,49.323284 
	C305.593353,48.885983 303.931519,48.584248 305.462036,51.536755 
M288.259003,34.097122 
	C286.451904,31.142035 283.306061,31.466042 280.381958,30.608925 
	C283.260620,37.908810 286.118500,40.174854 291.493652,39.338505 
	C290.497894,37.720337 289.566864,36.207314 288.259003,34.097122 
M308.499512,46.064548 
	C311.238403,47.438725 313.977264,48.812897 317.361877,50.511051 
	C314.826782,44.373028 310.412994,41.780090 304.418396,39.344017 
	C305.934479,41.967243 306.971680,43.761936 308.499512,46.064548 
M297.537323,36.054752 
	C296.061371,35.392242 294.585388,34.729733 293.109436,34.067219 
	C295.247223,38.044647 295.996948,43.165348 302.400146,42.849453 
	C300.789886,40.457726 299.441193,38.454544 297.537323,36.054752 
M257.476837,62.043358 
	C251.471191,62.439217 245.327454,62.135712 239.961426,65.825684 
	C245.758728,64.724869 251.556030,63.624058 257.476837,62.043358 
M323.610382,58.735439 
	C323.318542,58.576359 323.040863,58.337654 322.730560,58.282421 
	C322.463745,58.234932 322.159698,58.396881 321.713348,58.504501 
	C323.805511,62.290962 326.636414,64.978271 331.526398,66.083252 
	C329.786438,62.373043 326.891602,60.766529 323.610382,58.735439 
z"/>
</svg>